<svg width="12" height="14" viewBox="0 0 12 14" fill="none" xmlns="http://www.w3.org/2000/svg">
    <path d="M0.666748 3.66667H11.3334M4.66675 6.33333V10.3333M7.33341 6.33333V10.3333M1.33341 3.66667L2.00008 11.6667C2.00008 12.0203 2.14056 12.3594 2.39061 12.6095C2.64065 12.8595 2.97979 13 3.33341 13H8.66675C9.02037 13 9.35951 12.8595 9.60956 12.6095C9.85961 12.3594 10.0001 12.0203 10.0001 11.6667L10.6667 3.66667M4.00008 3.66667V1.66667C4.00008 1.48986 4.07032 1.32029 4.19534 1.19526C4.32037 1.07024 4.48994 1 4.66675 1H7.33341C7.51023 1 7.6798 1.07024 7.80482 1.19526C7.92984 1.32029 8.00008 1.48986 8.00008 1.66667V3.66667" stroke="#FF2F00" stroke-linecap="round" stroke-linejoin="round"/>
</svg>
