<svg width="40" height="40" viewBox="0 0 40 40" fill="none" xmlns="http://www.w3.org/2000/svg">
    <g clip-path="url(#clip0_411_166)">
        <rect width="40" height="40" rx="20" fill="#BFBFBF"/>
        <path d="M12 15C12 17.1217 12.8429 19.1566 14.3431 20.6569C15.8434 22.1571 17.8783 23 20 23C22.1217 23 24.1566 22.1571 25.6569 20.6569C27.1571 19.1566 28 17.1217 28 15C28 12.8783 27.1571 10.8434 25.6569 9.34315C24.1566 7.84285 22.1217 7 20 7C17.8783 7 15.8434 7.84285 14.3431 9.34315C12.8429 10.8434 12 12.8783 12 15Z" fill="#E6E6E6"/>
        <path d="M8 48V34C8 31.8783 8.84285 29.8434 10.3431 28.3431C11.8434 26.8429 13.8783 26 16 26H24C26.1217 26 28.1566 26.8429 29.6569 28.3431C31.1571 29.8434 32 31.8783 32 34V48" fill="#E6E6E6"/>
    </g>
    <defs>
        <clipPath id="clip0_411_166">
            <rect width="40" height="40" rx="20" fill="white"/>
        </clipPath>
    </defs>
</svg>
