<svg width="864" height="48" viewBox="0 0 864 48" fill="none" xmlns="http://www.w3.org/2000/svg">
    <g filter="url(#filter0_f_290_777)">
        <path fill-rule="evenodd" clip-rule="evenodd" d="M366.286 -435.999V-348.38H322.476V-304.571H366.286V-260.761H322.476V-129.333H366.286V-173.142H410.095V-85.5235H322.476V2.09534H234.857V-41.7141H278.667V-85.5235H234.857V-41.7141H191.048V-85.5235H147.238V-41.7141H59.6195V-85.5235H15.8101V-41.7141H59.6195V89.7141H15.8101V133.524H147.238V89.7141H103.429V45.9047H191.048V2.09534H234.857V45.9047H278.667V89.7141H234.857V133.524H278.667V89.7141H366.286V133.524H322.476V177.333H453.905V133.524H497.714V221.142H541.524V264.952H585.333V308.761H497.714V264.952H453.905V221.142H410.095V264.952H453.905V308.761H497.714V396.38H453.905V352.571H410.095V308.761H366.286V264.952H322.476V308.761H366.286V396.38H322.476V440.189H366.286V483.999H410.095V440.189H453.905V483.999H497.714V440.189H541.524V483.999H672.952V396.38H629.143V440.189H541.524V352.571H760.571V396.38H716.762V440.189H760.571V396.38H804.381V440.189H848.19V483.999H892V396.38H804.381V308.761H848.19V352.571H892V308.761H848.19V264.952H892V221.142H848.19V177.333H892V89.7141H804.381V2.09534H848.19V45.9047H892V-41.7141H804.381V-85.5235H760.571V-41.7141H716.762V-85.5235H629.143V-41.7141H585.333V-85.5235H541.524V-304.571H497.714V-348.38H453.905V-392.189H541.524V-435.999H453.905V-392.189H410.095V-435.999H366.286ZM410.095 -304.571V-260.761H453.905V-304.571H410.095ZM453.905 -173.142V-129.333H497.714V-173.142H453.905ZM453.905 -85.5235V-41.7141H497.714V2.09534H453.905V45.9047H497.714V133.524H541.524V177.333H585.333V133.524H716.762V89.7141H760.571V45.9047H716.762V2.09534H672.952V-41.7141H629.143V45.9047H541.524V2.09534H585.333V-41.7141H497.714V-85.5235H453.905ZM366.286 -41.7141V2.09534H322.476V45.9047H410.095V-41.7141H366.286ZM629.143 45.9047V89.7141H672.952V45.9047H629.143ZM541.524 89.7141V133.524H585.333V89.7141H541.524ZM585.333 221.142V264.952H672.952V308.761H716.762V264.952H848.19V221.142H585.333ZM366.286 396.38V440.189H410.095V396.38H366.286Z" fill="black"/>
    </g>
    <defs>
        <filter id="filter0_f_290_777" x="-148" y="-555.999" width="1160" height="1160" filterUnits="userSpaceOnUse" color-interpolation-filters="sRGB">
            <feFlood flood-opacity="0" result="BackgroundImageFix"/>
            <feBlend mode="normal" in="SourceGraphic" in2="BackgroundImageFix" result="shape"/>
            <feGaussianBlur stdDeviation="60" result="effect1_foregroundBlur_290_777"/>
        </filter>
    </defs>
</svg>
